<svg id="visual" viewBox="0 0 900 600" width="900" height="600" xmlns="http://www.w3.org/2000/svg" xmlns:xlink="http://www.w3.org/1999/xlink" version="1.1"><rect x="0" y="0" width="900" height="600" fill="#050b4b"></rect><path d="M0 301L25 300.3C50 299.7 100 298.3 150 323.5C200 348.7 250 400.3 300 413.3C350 426.3 400 400.7 450 386.2C500 371.7 550 368.3 600 349.7C650 331 700 297 750 301.7C800 306.3 850 349.7 875 371.3L900 393L900 601L875 601C850 601 800 601 750 601C700 601 650 601 600 601C550 601 500 601 450 601C400 601 350 601 300 601C250 601 200 601 150 601C100 601 50 601 25 601L0 601Z" fill="#06104b"></path><path d="M0 337L25 331.5C50 326 100 315 150 319.2C200 323.3 250 342.7 300 355.3C350 368 400 374 450 376.2C500 378.3 550 376.7 600 393.7C650 410.7 700 446.3 750 457.8C800 469.3 850 456.7 875 450.3L900 444L900 601L875 601C850 601 800 601 750 601C700 601 650 601 600 601C550 601 500 601 450 601C400 601 350 601 300 601C250 601 200 601 150 601C100 601 50 601 25 601L0 601Z" fill="#0f2a65"></path><path d="M0 480L25 471.8C50 463.7 100 447.3 150 431.3C200 415.3 250 399.7 300 399.3C350 399 400 414 450 435.8C500 457.7 550 486.3 600 493.3C650 500.3 700 485.7 750 478.3C800 471 850 471 875 471L900 471L900 601L875 601C850 601 800 601 750 601C700 601 650 601 600 601C550 601 500 601 450 601C400 601 350 601 300 601C250 601 200 601 150 601C100 601 50 601 25 601L0 601Z" fill="#1b447e"></path><path d="M0 462L25 474.3C50 486.7 100 511.3 150 517.3C200 523.3 250 510.7 300 498.2C350 485.7 400 473.3 450 481.3C500 489.3 550 517.7 600 518.5C650 519.3 700 492.7 750 486.8C800 481 850 496 875 503.5L900 511L900 601L875 601C850 601 800 601 750 601C700 601 650 601 600 601C550 601 500 601 450 601C400 601 350 601 300 601C250 601 200 601 150 601C100 601 50 601 25 601L0 601Z" fill="#2c5f96"></path><path d="M0 516L25 509.5C50 503 100 490 150 493.3C200 496.7 250 516.3 300 527.7C350 539 400 542 450 543.7C500 545.3 550 545.7 600 549.8C650 554 700 562 750 562C800 562 850 554 875 550L900 546L900 601L875 601C850 601 800 601 750 601C700 601 650 601 600 601C550 601 500 601 450 601C400 601 350 601 300 601C250 601 200 601 150 601C100 601 50 601 25 601L0 601Z" fill="#407bad"></path></svg>